<svg width="14" height="14" viewBox="0 0 14 14" fill="none" xmlns="http://www.w3.org/2000/svg">
<path d="M1 3.5H2.333M2.333 3.5H13M2.333 3.5V11.667C2.333 12.194 2.561 12.6989 2.966 13.0634C3.371 13.4279 3.919 13.6333 4.488 13.6333H9.512C10.081 13.6333 10.629 13.4279 11.034 13.0634C11.439 12.6989 11.667 12.194 11.667 11.667V3.5M4.167 3.5V2.333C4.167 2.061 4.271 1.8 4.466 1.605C4.661 1.41 4.924 1.3333 5.195 1.3333H8.805C9.076 1.3333 9.339 1.41 9.534 1.605C9.729 1.8 9.833 2.061 9.833 2.333V3.5M5.833 6.5V10.5M8.167 6.5V10.5" stroke="white" strokeWidth="1" strokeLinecap="round" strokeLinejoin="round"/>
</svg>
