<?xml version="1.0" encoding="UTF-8"?>
<!DOCTYPE svg PUBLIC "-//W3C//DTD SVG 1.1//EN" "http://www.w3.org/Graphics/SVG/1.1/DTD/svg11.dtd">
<svg xmlns="http://www.w3.org/2000/svg" version="1.1" width="321px" height="103px" style="shape-rendering:geometricPrecision; text-rendering:geometricPrecision; image-rendering:optimizeQuality; fill-rule:evenodd; clip-rule:evenodd" xmlns:xlink="http://www.w3.org/1999/xlink">
<g><path style="opacity:1" fill="#fbfcfc" d="M -0.5,-0.5 C 106.5,-0.5 213.5,-0.5 320.5,-0.5C 320.5,33.8333 320.5,68.1667 320.5,102.5C 213.5,102.5 106.5,102.5 -0.5,102.5C -0.5,68.1667 -0.5,33.8333 -0.5,-0.5 Z"/></g>
<g><path style="opacity:1" fill="#f69423" d="M 53.5,8.5 C 62.4726,13.6549 71.4726,18.8215 80.5,24C 81.8333,26.6667 81.8333,29.3333 80.5,32C 71.6567,36.8499 62.8234,41.6833 54,46.5C 49.2249,45.3412 47.5582,42.3412 49,37.5C 54.1667,34.3333 59.3333,31.1667 64.5,28C 61.2514,25.4574 57.7514,23.2908 54,21.5C 48.8286,24.7533 43.4952,27.7533 38,30.5C 37.3333,37.1667 37.3333,43.8333 38,50.5C 43.5015,53.583 48.8348,56.9164 54,60.5C 62.5842,54.7896 71.4175,49.4563 80.5,44.5C 81.8333,48.8333 81.8333,53.1667 80.5,57.5C 71.7318,62.6336 62.8985,67.6336 54,72.5C 45.1015,67.6336 36.2682,62.6336 27.5,57.5C 26.3342,46.5151 26.1676,35.5151 27,24.5C 35.7416,18.9059 44.575,13.5726 53.5,8.5 Z"/></g>
<g><path style="opacity:1" fill="#1e1e1e" d="M 141.5,7.5 C 152.586,6.2307 155.919,10.564 151.5,20.5C 141.243,24.3822 136.743,21.0488 138,10.5C 139.145,9.36362 140.312,8.36362 141.5,7.5 Z"/></g>
<g><path style="opacity:1" fill="#1b1b1b" d="M 87.5,9.5 C 92.5,9.5 97.5,9.5 102.5,9.5C 102.334,17.1739 102.5,24.8406 103,32.5C 103.717,31.9558 104.217,31.2891 104.5,30.5C 111.283,24.2625 118.449,23.9292 126,29.5C 127.935,32.3707 129.601,35.3707 131,38.5C 132.167,47.3688 131.5,56.0354 129,64.5C 124.476,72.3644 117.643,75.1978 108.5,73C 106.359,71.6924 104.359,70.1924 102.5,68.5C 101.585,69.3279 100.919,70.3279 100.5,71.5C 96.2172,72.4922 91.8839,72.8256 87.5,72.5C 87.5,51.5 87.5,30.5 87.5,9.5 Z"/></g>
<g><path style="opacity:1" fill="#7b7c7c" d="M 87.5,9.5 C 92.6405,8.51192 97.9738,8.17859 103.5,8.5C 103.175,16.0191 103.508,23.3524 104.5,30.5C 104.217,31.2891 103.717,31.9558 103,32.5C 102.5,24.8406 102.334,17.1739 102.5,9.5C 97.5,9.5 92.5,9.5 87.5,9.5 Z"/></g>
<g><path style="opacity:1" fill="#7e7e7e" d="M 174.5,41.5 C 174.5,30.8333 174.5,20.1667 174.5,9.5C 169.5,9.5 164.5,9.5 159.5,9.5C 159.5,30.5 159.5,51.5 159.5,72.5C 164.5,72.5 169.5,72.5 174.5,72.5C 174.183,68.2984 174.517,64.2984 175.5,60.5C 175.5,64.8333 175.5,69.1667 175.5,73.5C 169.833,73.5 164.167,73.5 158.5,73.5C 158.5,51.8333 158.5,30.1667 158.5,8.5C 164.167,8.5 169.833,8.5 175.5,8.5C 175.828,19.6794 175.495,30.6794 174.5,41.5 Z"/></g>
<g><path style="opacity:1" fill="#1b1b1b" d="M 174.5,41.5 C 174.343,42.8734 174.51,44.2068 175,45.5C 179.833,39.3333 184.667,33.1667 189.5,27C 195.5,26.3333 201.5,26.3333 207.5,27C 201.883,33.0902 196.883,39.5902 192.5,46.5C 197.204,55.3755 202.537,63.8755 208.5,72C 202.5,72.6667 196.5,72.6667 190.5,72C 187.124,66.7468 183.624,61.5802 180,56.5C 178.008,57.3281 176.508,58.6614 175.5,60.5C 174.517,64.2984 174.183,68.2984 174.5,72.5C 169.5,72.5 164.5,72.5 159.5,72.5C 159.5,51.5 159.5,30.5 159.5,9.5C 164.5,9.5 169.5,9.5 174.5,9.5C 174.5,20.1667 174.5,30.8333 174.5,41.5 Z"/></g>
<g><path style="opacity:1" fill="#1c1c1c" d="M 258.5,37.5 C 258.5,49.1667 258.5,60.8333 258.5,72.5C 254.833,72.5 251.167,72.5 247.5,72.5C 246.955,70.4068 246.122,68.4068 245,66.5C 239.171,72.7532 232.005,74.9199 223.5,73C 216.554,68.7767 214.054,62.61 216,54.5C 218.401,48.446 222.901,44.946 229.5,44C 234.155,43.5008 238.821,43.3342 243.5,43.5C 243.919,40.6755 242.919,38.5088 240.5,37C 234.93,36.4285 229.597,37.0952 224.5,39C 222.903,36.4728 221.57,33.8061 220.5,31C 220.82,29.3468 221.82,28.3468 223.5,28C 232.077,25.1967 240.743,24.8634 249.5,27C 254.488,28.8198 257.488,32.3198 258.5,37.5 Z"/></g>
<g><path style="opacity:1" fill="#1d1d1d" d="M 277.5,25.5 C 285.935,24.7764 293.935,26.2764 301.5,30C 299.735,33.1398 298.068,36.3064 296.5,39.5C 291.406,37.2267 286.073,36.2267 280.5,36.5C 280.33,37.8221 280.663,38.9887 281.5,40C 285.749,42.1935 290.082,44.1935 294.5,46C 301.667,51.1734 303.5,58.0068 300,66.5C 297.441,69.5314 294.274,71.6981 290.5,73C 283.833,73.6667 277.167,73.6667 270.5,73C 269.128,72.5983 267.795,72.0983 266.5,71.5C 265.339,67.2047 265.172,62.8713 266,58.5C 272.201,61.3125 278.701,62.1459 285.5,61C 286.727,59.4126 286.394,58.0793 284.5,57C 279.295,55.0459 274.295,52.7125 269.5,50C 261.93,38.2538 264.597,30.0871 277.5,25.5 Z"/></g>
<g><path style="opacity:1" fill="#191a19" d="M 137.5,26.5 C 142.833,26.5 148.167,26.5 153.5,26.5C 153.5,41.8333 153.5,57.1667 153.5,72.5C 148.167,72.5 142.833,72.5 137.5,72.5C 137.5,57.1667 137.5,41.8333 137.5,26.5 Z"/></g>
<g><path style="opacity:1" fill="#f8f9f9" d="M 106.5,38.5 C 109.97,37.8748 112.804,38.8748 115,41.5C 115.667,46.1667 115.667,50.8333 115,55.5C 113.923,60.1152 111.09,61.6152 106.5,60C 105.107,58.8289 104.273,57.3289 104,55.5C 103.333,50.8333 103.333,46.1667 104,41.5C 105.045,40.6266 105.878,39.6266 106.5,38.5 Z"/></g>
<g><path style="opacity:1" fill="#5f6060" d="M 258.5,37.5 C 259.495,49.3217 259.828,61.3217 259.5,73.5C 255.298,73.8168 251.298,73.4834 247.5,72.5C 251.167,72.5 254.833,72.5 258.5,72.5C 258.5,60.8333 258.5,49.1667 258.5,37.5 Z"/></g>
<g><path style="opacity:1" fill="#eeefef" d="M 234.5,52.5 C 237.5,52.5 240.5,52.5 243.5,52.5C 243.847,59.6545 240.514,62.8212 233.5,62C 230.753,58.5527 231.087,55.386 234.5,52.5 Z"/></g>
<g><path style="opacity:1" fill="#242424" d="M 140.5,83.5 C 142.527,83.3379 144.527,83.5045 146.5,84C 148.62,85.5227 148.953,87.3561 147.5,89.5C 145.604,90.4656 143.604,90.7989 141.5,90.5C 141.66,92.1992 141.494,93.8659 141,95.5C 140.501,91.5138 140.334,87.5138 140.5,83.5 Z"/></g>
<g><path style="opacity:1" fill="#3c3d3d" d="M 150.5,83.5 C 152.414,86.6843 153.08,90.351 152.5,94.5C 154.199,94.3398 155.866,94.5065 157.5,95C 155.19,95.4966 152.857,95.6633 150.5,95.5C 150.5,91.5 150.5,87.5 150.5,83.5 Z"/></g>
<g><path style="opacity:1" fill="#353535" d="M 180.5,83.5 C 182.857,83.3367 185.19,83.5034 187.5,84C 185.866,84.4935 184.199,84.6602 182.5,84.5C 182.5,85.8333 182.5,87.1667 182.5,88.5C 187.833,88.8333 187.833,89.1667 182.5,89.5C 182.5,91.1667 182.5,92.8333 182.5,94.5C 184.199,94.3398 185.866,94.5065 187.5,95C 185.19,95.4966 182.857,95.6633 180.5,95.5C 180.5,91.5 180.5,87.5 180.5,83.5 Z"/></g>
<g><path style="opacity:1" fill="#464747" d="M 162.5,83.5 C 163.75,83.5774 164.583,84.244 165,85.5C 165.975,88.7603 167.142,91.927 168.5,95C 166.939,95.1881 166.272,94.3547 166.5,92.5C 164.5,92.5 162.5,92.5 160.5,92.5C 160.719,93.675 160.386,94.675 159.5,95.5C 159.601,91.4815 160.601,87.4815 162.5,83.5 Z"/></g>
<g><path style="opacity:1" fill="#f2f3f3" d="M 141.5,84.5 C 145.676,83.8307 147.009,85.3307 145.5,89C 144.207,89.49 142.873,89.6567 141.5,89.5C 141.5,87.8333 141.5,86.1667 141.5,84.5 Z"/></g>
<g><path style="opacity:1" fill="#e6e7e7" d="M 162.5,85.5 C 164.213,86.6354 164.88,88.302 164.5,90.5C 163.448,90.6495 162.448,90.4828 161.5,90C 162.38,88.6439 162.714,87.1439 162.5,85.5 Z"/></g>
<g><path style="opacity:1" fill="#363636" d="M 171.5,83.5 C 173.604,83.2011 175.604,83.5344 177.5,84.5C 176.418,84.7486 175.085,84.9152 173.5,85C 171.297,87.76 170.964,90.76 172.5,94C 174.235,94.6514 175.902,94.4847 177.5,93.5C 178.696,93.8457 178.696,94.3457 177.5,95C 172.248,96.8557 169.581,95.0224 169.5,89.5C 169.611,87.2857 170.278,85.2857 171.5,83.5 Z"/></g>
</svg>
